<svg width="81" height="79" viewBox="0 0 81 79" fill="none" xmlns="http://www.w3.org/2000/svg">
<g filter="url(#filter0_d_943_5)">
<rect x="2" width="77" height="75" rx="10" fill="#B69256"/>
</g>
<g clip-path="url(#clip0_943_5)">
<path d="M49.2871 12.0049C52.6333 12.0049 55.9794 12.0033 59.3256 12.0049C61.3654 12.0049 62.6766 13.3055 62.6799 15.326C62.6832 17.6596 62.6832 19.9947 62.6799 22.3283C62.6783 24.2872 61.3441 25.6007 59.36 25.6007C54.2661 25.6024 49.1722 25.6056 44.0783 25.5959C43.3284 25.5959 42.6605 25.7824 42.0286 26.1813C40.4302 27.1916 38.8171 28.1808 37.2104 29.1781C37.1415 29.2219 37.0742 29.2981 37.002 29.3013C36.8035 29.311 36.5524 29.3581 36.4244 29.2608C36.3308 29.1894 36.3259 28.8716 36.4047 28.7305C36.8281 27.9764 37.2925 27.2435 37.7389 26.5007C38.1245 25.8618 38.0458 25.5586 37.4123 25.1726C36.4326 24.5759 35.8746 23.7099 35.8648 22.5715C35.8402 20.0482 35.8287 17.525 35.8648 15.0017C35.8861 13.3233 37.2761 12.0195 39.0041 12.0082C41.4756 11.9919 43.9487 12.0049 46.4202 12.0049C47.3753 12.0049 48.332 12.0049 49.2871 12.0049ZM56.3946 20.2639C57.2168 20.2704 57.8847 19.6234 57.8929 18.8158C57.8995 18.0163 57.2348 17.3482 56.4192 17.3369C55.6134 17.3255 54.934 17.9871 54.9275 18.7915C54.9209 19.6055 55.5724 20.2574 56.3962 20.2639H56.3946ZM49.2707 17.3401C48.4534 17.3401 47.7872 17.9936 47.7855 18.8012C47.7839 19.6104 48.4436 20.2623 49.2658 20.2639C50.088 20.2639 50.7477 19.6185 50.7509 18.8061C50.7542 18.0017 50.088 17.3417 49.2707 17.3401ZM42.1271 17.3401C41.3082 17.3401 40.6452 17.9985 40.6469 18.8044C40.6469 19.612 41.3098 20.2623 42.132 20.2623C42.9509 20.2623 43.6156 19.6072 43.6139 18.7996C43.6123 17.9936 42.9444 17.3385 42.1271 17.3401Z" fill="white"/>
<path d="M54.9151 61.9984C51.7741 61.9984 48.6315 61.9984 45.4904 61.9984C44.2892 61.9984 43.7788 61.4892 43.7788 60.2924C43.7788 58.0529 43.7755 55.8118 43.7788 53.5723C43.7837 49.2458 47.0659 45.9847 51.4426 45.9636C53.7647 45.9522 56.0869 45.9522 58.409 45.9636C62.7759 45.9831 66.0629 49.262 66.0613 53.5821C66.0613 55.8361 66.0613 58.0886 66.0613 60.3427C66.0613 61.4811 65.5378 61.9967 64.3825 61.9984C62.7972 62 61.2136 61.9984 59.6283 61.9984C58.0578 61.9984 56.4873 61.9984 54.9151 61.9984Z" fill="white"/>
<path d="M14.9602 50.1297C15.1522 50.1297 15.3015 50.1297 15.4492 50.1297C22.2104 50.1297 28.9717 50.1297 35.7313 50.1297C37.3297 50.1297 38.9281 50.1297 40.5248 50.1297C41.2961 50.1297 41.5866 50.42 41.5899 51.1838C41.5915 51.5487 41.5948 51.9119 41.5899 52.2768C41.58 52.9303 41.2682 53.2416 40.602 53.2416C37.7071 53.2449 34.8106 53.2449 31.9158 53.2449C26.0834 53.2449 20.251 53.2449 14.4186 53.2449C12.8317 53.2449 11.998 52.4195 11.998 50.8449C11.9997 39.5226 11.9997 28.2003 11.9997 16.8796C11.9997 15.3391 12.8432 14.5088 14.4088 14.5088C20.2953 14.5088 26.1818 14.5088 32.0684 14.5088C32.9874 14.5088 33.2467 14.7618 33.2401 15.6553C33.2385 15.9926 33.2385 16.3299 33.2303 16.6672C33.2171 17.2996 32.9086 17.6142 32.2669 17.6158C30.6275 17.6207 28.9897 17.6158 27.3503 17.6158C23.3477 17.6158 19.3468 17.6175 15.3442 17.6207C15.2244 17.6207 15.1046 17.6353 14.9602 17.645V50.1297Z" fill="white"/>
<path d="M62.9589 36.0879C62.9933 40.4161 59.4125 44.021 55.0505 44.0534C50.5409 44.0875 46.9042 40.5831 46.8829 36.1836C46.8616 31.8133 50.4178 28.2279 54.8109 28.1922C59.2993 28.1549 62.9244 31.669 62.9605 36.0896L62.9589 36.0879Z" fill="white"/>
<path d="M26.8369 47.0584C24.6936 47.0584 22.5504 47.0584 20.4055 47.0584C19.3388 47.0584 18.7989 46.52 18.7973 45.4594C18.7956 43.9481 18.7907 42.4383 18.7973 40.9269C18.812 37.8572 21.2014 35.488 24.3014 35.4734C26.0081 35.4653 27.7149 35.4653 29.4216 35.4734C32.4297 35.488 34.8371 37.8361 34.8765 40.8102C34.8978 42.401 34.8863 43.9935 34.8765 45.5859C34.8716 46.4843 34.2972 47.0535 33.3864 47.0551C31.2021 47.0616 29.0179 47.0567 26.8336 47.0567L26.8369 47.0584Z" fill="white"/>
<path d="M68.2446 17.6188C67.6341 17.6188 67.0778 17.6188 66.5215 17.6188C65.5385 17.6188 65.2989 17.3804 65.2956 16.3928C65.2956 16.0685 65.2857 15.7458 65.2923 15.4215C65.3021 14.8458 65.6238 14.5182 66.2113 14.5117C67.1664 14.502 68.1231 14.4939 69.0799 14.5134C70.2746 14.5377 71.1673 15.4344 71.1788 16.6134C71.192 17.9756 71.1821 19.3394 71.1821 20.7015C71.1821 30.7946 71.1821 40.8861 71.1821 50.9792C71.1821 52.197 70.4502 53.0743 69.3211 53.2235C68.5646 53.324 68.2479 53.0532 68.2479 52.2992C68.2479 40.938 68.2479 29.5784 68.2479 18.2172C68.2479 18.0323 68.2479 17.8491 68.2479 17.6188H68.2446Z" fill="white"/>
<path d="M26.8437 23.6401C29.7861 23.6434 32.1591 25.9948 32.1493 28.8943C32.1378 31.7743 29.7681 34.0981 26.8404 34.0997C23.916 34.0997 21.5463 31.7743 21.5381 28.8894C21.5283 25.9883 23.9045 23.6369 26.8453 23.6401H26.8437Z" fill="white"/>
<path d="M35.5607 59.7948C33.9098 59.7948 32.2589 59.7948 30.6096 59.7948C30.009 59.7948 29.9236 59.7073 29.922 59.1154C29.9154 57.6721 30.1714 57.4159 31.6254 57.4159C32.1571 57.4159 32.6905 57.3916 33.2206 57.4207C34.0788 57.4694 34.6827 57.0851 35.1357 56.4056C35.2325 56.2596 35.3211 56.1072 35.4032 55.9515C35.6575 55.4764 36.0563 55.2429 36.5962 55.2429C37.9468 55.2429 39.2975 55.238 40.6481 55.2429C41.2635 55.2461 41.5851 55.5623 41.59 56.1656C41.5982 57.0543 41.5999 57.9445 41.5867 58.8332C41.5769 59.4964 41.2733 59.7835 40.5939 59.7851C38.9167 59.79 37.2379 59.7851 35.5607 59.7851V59.79V59.7948Z" fill="white"/>
</g>
<defs>
<filter id="filter0_d_943_5" x="0" y="0" width="81" height="79" filterUnits="userSpaceOnUse" color-interpolation-filters="sRGB">
<feFlood flood-opacity="0" result="BackgroundImageFix"/>
<feColorMatrix in="SourceAlpha" type="matrix" values="0 0 0 0 0 0 0 0 0 0 0 0 0 0 0 0 0 0 127 0" result="hardAlpha"/>
<feOffset dy="2"/>
<feGaussianBlur stdDeviation="1"/>
<feComposite in2="hardAlpha" operator="out"/>
<feColorMatrix type="matrix" values="0 0 0 0 0.595833 0 0 0 0 0.595833 0 0 0 0 0.595833 0 0 0 0.2 0"/>
<feBlend mode="normal" in2="BackgroundImageFix" result="effect1_dropShadow_943_5"/>
<feBlend mode="normal" in="SourceGraphic" in2="effect1_dropShadow_943_5" result="shape"/>
</filter>
<clipPath id="clip0_943_5">
<rect width="59.1837" height="50" fill="white" transform="translate(12 12)"/>
</clipPath>
</defs>
</svg>
