<svg width="81" height="80" viewBox="0 0 81 80" fill="none" xmlns="http://www.w3.org/2000/svg">
<g filter="url(#filter0_d_943_6)">
<rect x="2" y="0.822266" width="77" height="75" rx="10" fill="#8B0637"/>
</g>
<g clip-path="url(#clip0_943_6)">
<path d="M16.9928 50.189C17.3623 48.9036 17.8061 47.6612 18.068 46.3816C18.6272 43.6543 18.3632 40.968 17.3545 38.3757C14.3438 30.6378 16.4298 22.3814 22.8381 17.1439C26.6562 14.0213 31.0822 12.6342 36.0067 13.0822C44.5694 13.8629 51.3649 20.1882 52.661 28.7009C54.1057 38.1859 48.1939 47.086 38.8062 49.3144C34.6715 50.2966 30.6345 49.9346 26.7598 48.1523C25.837 47.7277 25.1117 47.8705 24.3591 48.5338C22.3259 50.3259 19.9507 50.864 17.3154 50.2946C17.1766 50.2653 17.0436 50.2085 16.9909 50.1909L16.9928 50.189ZM46.9428 31.5084C46.9486 30.045 45.7502 28.8359 44.286 28.828C42.8256 28.8202 41.6096 30.0215 41.5999 31.483C41.5901 32.9347 42.8022 34.1575 44.2606 34.1673C45.719 34.1771 46.9369 32.9699 46.9428 31.5084ZM37.0937 31.4947C37.0937 30.0215 35.9031 28.828 34.433 28.83C32.9629 28.83 31.7742 30.0234 31.7742 31.4986C31.7742 32.968 32.9726 34.1712 34.4369 34.1673C35.9051 34.1634 37.0937 32.968 37.0937 31.4947ZM27.2563 31.5182C27.27 30.045 26.0873 28.8417 24.6171 28.83C23.149 28.8182 21.9467 30.0058 21.9389 31.4752C21.931 32.9503 23.106 34.1497 24.5761 34.1673C26.0384 34.1829 27.2446 32.9914 27.2583 31.5182H27.2563Z" fill="white"/>
<path d="M65.1137 62.691C62.3768 63.3973 59.9272 62.9023 57.7455 61.1004C57.4249 60.8363 57.071 60.5291 56.6898 60.4489C56.2949 60.3667 55.8023 60.4391 55.4289 60.6093C52.7603 61.8243 49.9687 62.4543 47.046 62.3056C40.4715 61.971 35.4003 58.9972 31.8286 53.4642C31.768 53.3683 31.7152 53.2666 31.6644 53.1649C31.6527 53.1394 31.6644 53.1042 31.6644 53.0592C38.9173 53.7538 45.2377 51.7171 50.2854 46.3876C55.3194 41.0738 57.0046 34.6643 55.9235 27.4136C57.2528 28.0533 58.418 28.8164 59.4834 29.7222C63.104 32.8057 65.274 36.701 65.8683 41.4299C66.2613 44.5544 65.7667 47.5987 64.7657 50.5588C64.0932 52.5486 63.6514 54.5618 63.7257 56.6768C63.7922 58.5863 64.2105 60.4097 64.9632 62.1628C65.014 62.2821 65.0668 62.4014 65.1137 62.5227C65.1235 62.5501 65.1137 62.5854 65.1137 62.6949V62.691Z" fill="white"/>
</g>
<defs>
<filter id="filter0_d_943_6" x="0" y="0.822266" width="81" height="79" filterUnits="userSpaceOnUse" color-interpolation-filters="sRGB">
<feFlood flood-opacity="0" result="BackgroundImageFix"/>
<feColorMatrix in="SourceAlpha" type="matrix" values="0 0 0 0 0 0 0 0 0 0 0 0 0 0 0 0 0 0 127 0" result="hardAlpha"/>
<feOffset dy="2"/>
<feGaussianBlur stdDeviation="1"/>
<feComposite in2="hardAlpha" operator="out"/>
<feColorMatrix type="matrix" values="0 0 0 0 0.595833 0 0 0 0 0.595833 0 0 0 0 0.595833 0 0 0 0.2 0"/>
<feBlend mode="normal" in2="BackgroundImageFix" result="effect1_dropShadow_943_6"/>
<feBlend mode="normal" in="SourceGraphic" in2="effect1_dropShadow_943_6" result="shape"/>
</filter>
<clipPath id="clip0_943_6">
<rect width="50" height="50" fill="white" transform="translate(16 13)"/>
</clipPath>
</defs>
</svg>
