<svg width="116" height="116" viewBox="0 0 116 116" fill="none" xmlns="http://www.w3.org/2000/svg">
<circle cx="58" cy="58" r="58" fill="#EDEDED"/>
<g clip-path="url(#clip0_918_5)">
<path d="M83.84 48.75C85.17 51.85 85.96 55.24 86.1 58.79H77.9C77.35 59.64 76.85 60.4 76.43 61.04H86.1C85.92 65.57 84.69 69.82 82.63 73.57H71.99C72.72 70.65 73.23 67.46 73.45 64.08C73.13 64.18 72.81 64.24 72.47 64.24C72.02 64.24 71.6 64.13 71.2 63.97C70.95 67.39 70.4 70.63 69.61 73.57H58.82V61.04H68.52C68.09 60.4 67.59 59.64 67.05 58.79H58.83V46.26H59.84C59.49 45.54 59.15 44.82 58.83 44.11C58.82 44.08 58.8 44.05 58.79 44.01C57.8 41.79 57.01 39.66 56.58 37.78V44.01H46.46C48.74 37.12 52.43 32.33 56.58 31.59C56.58 31.59 56.6 31.54 56.61 31.51C56.7 31.12 56.79 30.74 56.91 30.36C57.02 29.98 57.16 29.62 57.3 29.25C40.55 29.46 27 43.13 27 59.91C27 76.69 40.77 90.6 57.69 90.6C74.61 90.6 88.38 76.83 88.38 59.91C88.38 54.99 87.21 50.34 85.14 46.21C84.73 47.05 84.29 47.9 83.84 48.75ZM68.93 75.82C66.65 82.71 62.96 87.5 58.81 88.24V75.82H68.93ZM56.56 88.24C52.41 87.5 48.73 82.7 46.44 75.82H56.56V88.24ZM56.56 73.57H45.77C44.75 69.8 44.13 65.54 44.04 61.04H56.56V73.57ZM56.56 46.26V58.79H44.04C44.13 54.29 44.75 50.03 45.77 46.26H56.56ZM50.55 32.39C47.82 34.97 45.56 39.01 44.01 44.01H34.13C37.96 38.35 43.77 34.15 50.56 32.39H50.55ZM32.75 46.26H43.39C42.44 50.04 41.88 54.28 41.8 58.79H29.28C29.46 54.26 30.69 50.01 32.75 46.26ZM41.79 61.04C41.87 65.55 42.43 69.79 43.38 73.57H32.75C30.69 69.82 29.45 65.57 29.28 61.04H41.8H41.79ZM34.12 75.82H44.01C45.55 80.82 47.82 84.86 50.55 87.44C43.76 85.68 37.95 81.47 34.12 75.82ZM64.82 87.44C67.55 84.86 69.81 80.82 71.36 75.82H81.25C77.42 81.48 71.61 85.68 64.82 87.44Z" fill="#B69256"/>
<path d="M61.2504 44.01C61.6004 44.75 61.9704 45.51 62.3604 46.26C64.8004 51.03 67.8304 55.87 69.7304 58.79C70.3904 59.8 70.9104 60.58 71.2204 61.04C71.2604 61.09 71.2904 61.15 71.3204 61.19C71.4304 61.35 71.5004 61.46 71.5304 61.5C71.7404 61.8 72.0904 61.99 72.4604 61.99C72.8304 61.99 73.1804 61.81 73.3904 61.5C73.4204 61.46 73.4804 61.36 73.5704 61.23C73.6104 61.17 73.6604 61.1 73.7104 61.03C74.0204 60.57 74.5404 59.79 75.2004 58.78C77.1004 55.86 80.1304 51.02 82.5704 46.25L82.5904 46.21C82.8304 45.74 83.0604 45.28 83.2904 44.82C83.4604 44.48 83.6204 44.13 83.7804 43.79C85.3604 40.4 86.4804 37.22 86.4804 35.02C86.4804 27.29 80.1904 21 72.4604 21C66.7704 21 61.8704 24.41 59.6704 29.3C59.6504 29.35 59.6204 29.4 59.6004 29.45C59.3104 30.11 59.0904 30.8 58.9004 31.51L58.8804 31.6C58.8504 31.7 58.8304 31.8 58.8004 31.9C58.5704 32.91 58.4404 33.95 58.4404 35.02C58.4404 35.77 58.5704 36.63 58.8004 37.56C59.2704 39.45 60.1504 41.68 61.2404 44L61.2504 44.01ZM61.0104 32.37C61.0604 32.14 61.1204 31.92 61.1804 31.7C61.3304 31.18 61.5204 30.68 61.7404 30.2C61.8404 29.98 61.9404 29.76 62.0604 29.55C64.0304 25.81 67.9604 23.26 72.4704 23.26C78.9604 23.26 84.2404 28.54 84.2404 35.03C84.2404 36.63 83.4804 38.98 82.3104 41.63C81.9804 42.39 81.6004 43.17 81.2104 43.96L81.1804 44.01C80.8104 44.75 80.4304 45.5 80.0304 46.26C77.9504 50.19 75.4804 54.22 73.5304 57.24C73.1704 57.79 72.8304 58.32 72.5104 58.79L72.4604 58.86L72.4104 58.79C72.0504 58.26 71.6604 57.66 71.2604 57.03C69.3304 54.04 66.9304 50.1 64.8904 46.26C64.4904 45.5 64.1104 44.75 63.7404 44.01C61.9604 40.4 60.6904 37.09 60.6904 35.02C60.6904 34.11 60.8004 33.22 61.0004 32.37H61.0104Z" fill="#B69256"/>
<path d="M67.4804 40.3205C68.3804 41.1605 69.4804 41.7805 70.7104 42.0905C71.2704 42.2305 71.8604 42.3105 72.4704 42.3105C74.6104 42.3105 76.5304 41.3805 77.8704 39.9005C78.3804 39.3305 78.8104 38.6905 79.1304 37.9805C79.5404 37.0705 79.7704 36.0705 79.7704 35.0205C79.7704 31.0005 76.5004 27.7305 72.4804 27.7305C70.1304 27.7305 68.0504 28.8505 66.7104 30.5805C66.2404 31.1905 65.8704 31.8705 65.6104 32.6105C65.5604 32.7505 65.5104 32.8905 65.4704 33.0305C65.2904 33.6605 65.1904 34.3305 65.1904 35.0205C65.1904 35.5405 65.2504 36.0405 65.3504 36.5205C65.6604 38.0005 66.4304 39.3105 67.4904 40.3105L67.4804 40.3205ZM67.4304 35.0205C67.4304 34.4205 67.5504 33.8505 67.7504 33.3205C68.0204 32.5805 68.4404 31.9205 68.9904 31.3905C69.9004 30.5205 71.1204 29.9805 72.4704 29.9805C75.2504 29.9805 77.5104 32.2405 77.5104 35.0205C77.5104 35.4805 77.4304 35.9205 77.3104 36.3405C77.1004 37.1005 76.7204 37.7905 76.2104 38.3605C75.2904 39.3905 73.9604 40.0605 72.4704 40.0605C71.3204 40.0605 70.2804 39.6605 69.4304 39.0105C68.3704 38.2005 67.6504 36.9805 67.4904 35.5905C67.4704 35.4005 67.4304 35.2205 67.4304 35.0205Z" fill="#B69256"/>
</g>
<defs>
<clipPath id="clip0_918_5">
<rect width="61.37" height="69.6" fill="white" transform="translate(27 21)"/>
</clipPath>
</defs>
</svg>
