<svg width="116" height="116" viewBox="0 0 116 116" fill="none" xmlns="http://www.w3.org/2000/svg">
<circle cx="58" cy="58" r="58" fill="#EDEDED"/>
<g clip-path="url(#clip0_918_3)">
<path d="M30.3486 83.8566C34.357 84.1699 37.9847 84.7139 40.7415 86.1151C40.8599 86.181 40.9783 86.2387 41.0882 86.3046C41.1474 86.3376 41.2151 86.3706 41.2743 86.4035C42.4582 87.0217 43.7013 87.6399 45.0035 88.2499C48.6905 89.989 51.6756 90.8709 55.2949 90.9699C59.743 91.0935 67.4975 87.4503 73.4423 84.2605C84.8838 78.1282 91.2768 74.213 88.148 71.7156C85.1967 69.3582 76.3682 74.6334 68.8082 78.3672" stroke="#B69256" stroke-width="2.5" stroke-linecap="round" stroke-linejoin="round"/>
<path d="M44.395 78.6228C49.7648 79.0432 53.2235 80.5351 57.9252 82.1011C62.7284 83.7001 65.8066 84.7222 66.6015 82.1341C67.4471 79.4058 61.6968 75.2517 55.6504 72.8778C51.2954 71.1634 48.2257 67.7923 44.1667 67.273C40.8433 66.8444 37.8159 67.6274 35.4143 68.394C32.573 69.3089 30.2221 69.8776 28.0488 70.2238" stroke="#B69256" stroke-width="2.5" stroke-linecap="round" stroke-linejoin="round"/>
<path d="M81.0785 69.5143C80.6388 69.0527 79.8016 68.7725 78.5754 68.7725C75.2944 68.7725 70.1952 72.1601 65.6118 75.0037" stroke="#B69256" stroke-width="2.5" stroke-linecap="round" stroke-linejoin="round"/>
<path d="M73.5356 67.5035C73.155 67.4211 72.6899 67.3963 72.1403 67.4375C69.5188 67.6601 66.6013 70.2977 62.686 73.1001" stroke="#B69256" stroke-width="2.5" stroke-linecap="round" stroke-linejoin="round"/>
<path d="M66.4742 67.1989C66.1106 67.1329 65.6708 67.1329 65.155 67.1989C63.2016 67.4791 62.3982 68.9545 59.4639 71.2871" stroke="#B69256" stroke-width="2.5" stroke-linecap="round" stroke-linejoin="round"/>
<path d="M49.7646 32.638C49.7646 36.8417 52.9104 40.6991 56.7919 40.6991C60.6734 40.6991 63.8191 36.8334 63.8191 32.638C63.8191 28.4426 60.6734 25.0303 56.7919 25.0303C52.9104 25.0303 49.7646 28.4344 49.7646 32.638V32.638Z" stroke="#B69256" stroke-width="2.5" stroke-linecap="round" stroke-linejoin="round"/>
<path d="M44.674 62.2613H68.9015C70.0854 62.2613 71.041 61.3299 71.041 60.176V57.3323C71.041 49.8482 64.8171 43.79 57.1471 43.79H56.4368C48.7584 43.79 42.543 49.8565 42.543 57.3323V60.176C42.543 61.3299 43.4985 62.2613 44.6824 62.2613H44.674Z" stroke="#B69256" stroke-width="2.5" stroke-linecap="round" stroke-linejoin="round"/>
<path d="M64.8252 54.9834V62.2615" stroke="#B69256" stroke-width="2.5" stroke-linecap="round" stroke-linejoin="round"/>
<path d="M48.75 54.9834V62.2615" stroke="#B69256" stroke-width="2.5" stroke-linecap="round" stroke-linejoin="round"/>
</g>
<defs>
<clipPath id="clip0_918_3">
<rect width="63" height="68" fill="white" transform="translate(27 24)"/>
</clipPath>
</defs>
</svg>
