<svg width="81" height="80" viewBox="0 0 81 80" fill="none" xmlns="http://www.w3.org/2000/svg">
<g filter="url(#filter0_d_943_3)">
<rect x="2" y="0.822266" width="77" height="75" rx="10" fill="#B69256"/>
</g>
<g clip-path="url(#clip0_943_3)">
<path d="M38.3541 58.043C38.1527 58.043 37.9943 58.043 37.8339 58.043C31.1615 58.043 24.4911 58.043 17.8187 58.043C16.5339 58.043 16 57.5167 16 56.2471C16 47.264 16 38.2808 16 29.2977V28.7773H62.9415V38.2652C60.0727 35.9783 56.8382 34.7518 53.0932 34.6129C53.3103 34.4798 53.4335 34.4153 53.545 34.3351C54.0515 33.979 54.2861 33.3687 54.1375 32.7955C53.9791 32.1832 53.4902 31.7117 52.8605 31.6922C51.7869 31.657 50.7114 31.6491 49.6397 31.6961C48.8868 31.7293 48.3275 32.4062 48.3314 33.1457C48.3373 33.9067 48.9259 34.5463 49.7062 34.5894C50.2733 34.6207 50.8443 34.5953 51.5425 34.5953C50.6136 34.7635 49.8059 34.8672 49.0237 35.0648C48.2082 35.2721 47.3967 35.5245 46.6184 35.8414C45.8537 36.1524 45.1106 36.5339 44.4007 36.9545C43.6909 37.3751 43.0338 37.8818 42.3317 38.3689C41.9367 37.6607 41.2972 37.5023 40.5502 37.5277C39.7543 37.5551 38.9564 37.5257 38.1586 37.5355C37.2531 37.5472 36.6058 38.1772 36.6156 39.0144C36.6254 39.8322 37.2649 40.4406 38.1449 40.4582C38.8117 40.4719 39.4786 40.4679 40.1454 40.4738C40.1572 40.4738 40.1708 40.4875 40.2178 40.5188C40.1532 40.6205 40.0907 40.7223 40.0261 40.824C39.6233 41.4539 39.1989 42.0701 38.8235 42.7157C38.5888 43.1187 38.401 43.4356 37.8261 43.4454C37.259 43.4551 36.864 43.8699 36.686 44.4372C36.5139 44.9928 36.6586 45.474 37.0654 45.8613C37.2512 46.0394 37.3353 46.1802 37.259 46.4443C36.1326 50.3353 36.5081 54.0952 38.2485 57.7378C38.2896 57.8219 38.313 57.9138 38.36 58.0449L38.3541 58.043ZM27.8429 31.6765C27.356 31.6765 26.8671 31.6648 26.3802 31.6785C25.5354 31.702 24.9076 32.3162 24.8939 33.1144C24.8802 33.9321 25.5138 34.5816 26.3802 34.5972C27.3384 34.6148 28.2986 34.6148 29.2588 34.5972C30.1036 34.5816 30.7313 33.9614 30.745 33.1633C30.7587 32.3456 30.1251 31.7039 29.2588 31.6785C28.7875 31.6648 28.3162 31.6765 27.8449 31.6765H27.8429ZM39.5372 31.6765C39.0503 31.6765 38.5614 31.6628 38.0745 31.6804C37.2355 31.7098 36.6117 32.3397 36.6117 33.1378C36.6117 33.936 37.2336 34.5796 38.0725 34.5953C39.0483 34.6148 40.0242 34.6148 41 34.5953C41.8389 34.5776 42.4628 33.938 42.4628 33.1398C42.4628 32.3416 41.8409 31.7098 41.002 31.6804C40.515 31.6628 40.0261 31.6765 39.5392 31.6765H39.5372ZM27.7901 40.4601C28.2771 40.4601 28.766 40.4719 29.2529 40.4582C30.1192 40.4327 30.7548 39.793 30.7411 38.9773C30.7293 38.1791 30.1036 37.5551 29.2588 37.5394C28.3005 37.5218 27.3403 37.5218 26.3802 37.5394C25.5138 37.5551 24.8783 38.2026 24.892 39.0184C24.9037 39.8165 25.5295 40.4308 26.3743 40.4562C26.8456 40.4699 27.3169 40.4582 27.7882 40.4582L27.7901 40.4601ZM27.7706 46.3191C28.2751 46.3191 28.7796 46.3328 29.2822 46.3152C30.1212 46.2859 30.743 45.654 30.7411 44.8539C30.7411 44.0557 30.1173 43.416 29.2783 43.3984C28.3025 43.3789 27.3267 43.3789 26.3508 43.3984C25.5119 43.416 24.89 44.0577 24.892 44.8578C24.892 45.6559 25.5158 46.2859 26.3547 46.3152C26.826 46.3308 27.2973 46.3191 27.7686 46.3172L27.7706 46.3191ZM27.7901 52.1801C28.2771 52.1801 28.766 52.1918 29.2529 52.1781C30.1192 52.1527 30.7548 51.513 30.7411 50.6972C30.7293 49.8991 30.1036 49.275 29.2588 49.2594C28.3005 49.2418 27.3403 49.2418 26.3802 49.2594C25.5138 49.275 24.8783 49.9225 24.892 50.7383C24.9037 51.5365 25.5295 52.1507 26.3743 52.1761C26.8456 52.1898 27.3169 52.1781 27.7882 52.1781L27.7901 52.1801Z" fill="white"/>
<path d="M52.8192 63.9998C45.5797 64.0018 39.6504 58.0802 39.6348 50.8303C39.6192 43.5784 45.5934 37.6079 52.8408 37.6314C60.094 37.6549 66.0115 43.5882 66.0017 50.8244C65.99 58.0704 60.0627 63.9959 52.8212 63.9979L52.8192 63.9998ZM54.2801 49.3533C54.2801 49.1127 54.2801 48.9366 54.2801 48.7606C54.2801 47.4929 54.2937 46.2233 54.2722 44.9556C54.2585 44.1164 53.6132 43.4943 52.8134 43.4963C52.0331 43.4963 51.3721 44.1027 51.3623 44.9107C51.3408 46.8943 51.3408 48.8779 51.3623 50.8616C51.3702 51.65 51.9764 52.2603 52.7645 52.2681C54.7474 52.2916 56.7323 52.2877 58.7153 52.2681C59.3391 52.2623 59.7948 51.9258 60.0294 51.3448C60.4186 50.3784 59.7205 49.3709 58.6332 49.3572C57.2056 49.3377 55.7761 49.3533 54.2801 49.3533Z" fill="white"/>
<path d="M54.1786 17.0322C56.6035 17.0303 59.0284 17.0205 61.4533 17.0283C62.3255 17.0303 62.9552 17.5937 62.963 18.4271C62.9865 20.8665 62.9708 23.306 62.9708 25.7806H16.0235C16.0156 25.6261 16.002 25.4696 16.002 25.3111C16 23.1319 16 20.9506 16 18.7694C16 17.5761 16.5397 17.0264 17.717 17.0244C20.1087 17.0244 22.5023 17.0283 24.8939 17.0322L24.8802 17.0186C24.8822 18.4486 24.8881 19.8766 24.8881 21.3067C24.8881 21.9679 25.1462 22.4804 25.7622 22.7563C26.7576 23.2003 27.798 22.4941 27.8116 21.3556C27.8292 19.9099 27.8214 18.4642 27.8234 17.0205L27.8097 17.0342C29.7672 17.0342 31.7247 17.0342 33.6823 17.0342L33.6686 17.0205C33.6705 18.4505 33.6764 19.8786 33.6764 21.3086C33.6764 21.9698 33.9345 22.4824 34.5505 22.7582C35.5459 23.2023 36.5863 22.4961 36.6 21.3575C36.6176 19.9119 36.6097 18.4662 36.6117 17.0225L36.598 17.0362C38.5555 17.0362 40.5131 17.0362 42.4706 17.0362L42.4569 17.0225C42.4589 18.4525 42.4647 19.8806 42.4647 21.3106C42.4647 21.9718 42.7229 22.4843 43.3389 22.7602C44.3342 23.2042 45.3746 22.498 45.3883 21.3595C45.4059 19.9138 45.3981 18.4681 45.4 17.0244L45.3863 17.0381C47.3439 17.0381 49.3014 17.0381 51.2589 17.0381L51.2452 17.0244C51.2472 18.4544 51.2531 19.8825 51.2531 21.3125C51.2531 21.9738 51.5112 22.4863 52.1272 22.7621C53.1226 23.2062 54.1629 22.5 54.1766 21.3614C54.1942 19.9158 54.1864 18.4701 54.1884 17.0264L54.1747 17.0401L54.1786 17.0322Z" fill="white"/>
<path d="M24.8936 17.0319C24.8936 16.5135 24.876 15.9932 24.8916 15.4748C24.917 14.6023 25.5467 13.986 26.3778 13.9997C27.1894 14.0134 27.7898 14.6199 27.8152 15.4728C27.8308 15.9912 27.8152 16.5116 27.8132 17.03L27.8269 17.0163H24.8838L24.8975 17.03L24.8936 17.0319Z" fill="white"/>
<path d="M33.6846 17.0319C33.6846 16.5135 33.667 15.9932 33.6826 15.4748C33.7061 14.6023 34.3358 13.986 35.1669 13.9997C35.9785 14.0134 36.5788 14.6199 36.6042 15.4728C36.6199 15.9912 36.6042 16.5116 36.6023 17.03L36.616 17.0163C35.6343 17.0163 34.6545 17.0163 33.6729 17.0163L33.6865 17.03L33.6846 17.0319Z" fill="white"/>
<path d="M42.4727 17.0319C42.4727 16.5135 42.4551 15.9932 42.4707 15.4748C42.4961 14.6023 43.1258 13.988 43.9569 14.0017C44.7685 14.0154 45.3689 14.6218 45.3943 15.4748C45.4099 15.9932 45.3943 16.5135 45.3923 17.0319L45.406 17.0182C44.4243 17.0182 43.4446 17.0182 42.4629 17.0182L42.4766 17.0319H42.4727Z" fill="white"/>
<path d="M51.2608 17.0319C51.2608 16.5135 51.2432 15.9932 51.2588 15.4748C51.2842 14.6023 51.9139 13.988 52.745 14.0017C53.5566 14.0154 54.157 14.6218 54.1824 15.4748C54.198 15.9932 54.1824 16.5135 54.1804 17.0319L54.1941 17.0182C53.2124 17.0182 52.2327 17.0182 51.251 17.0182L51.2647 17.0319H51.2608Z" fill="white"/>
</g>
<defs>
<filter id="filter0_d_943_3" x="0" y="0.822266" width="81" height="79" filterUnits="userSpaceOnUse" color-interpolation-filters="sRGB">
<feFlood flood-opacity="0" result="BackgroundImageFix"/>
<feColorMatrix in="SourceAlpha" type="matrix" values="0 0 0 0 0 0 0 0 0 0 0 0 0 0 0 0 0 0 127 0" result="hardAlpha"/>
<feOffset dy="2"/>
<feGaussianBlur stdDeviation="1"/>
<feComposite in2="hardAlpha" operator="out"/>
<feColorMatrix type="matrix" values="0 0 0 0 0.595833 0 0 0 0 0.595833 0 0 0 0 0.595833 0 0 0 0.2 0"/>
<feBlend mode="normal" in2="BackgroundImageFix" result="effect1_dropShadow_943_3"/>
<feBlend mode="normal" in="SourceGraphic" in2="effect1_dropShadow_943_3" result="shape"/>
</filter>
<clipPath id="clip0_943_3">
<rect width="50" height="50" fill="white" transform="translate(16 14)"/>
</clipPath>
</defs>
</svg>
