<svg width="81" height="80" viewBox="0 0 81 80" fill="none" xmlns="http://www.w3.org/2000/svg">
<g filter="url(#filter0_d_943_4)">
<rect x="2" y="0.822266" width="77" height="75" rx="10" fill="#8B0637"/>
</g>
<g clip-path="url(#clip0_943_4)">
<path d="M48.9993 32.9057C48.7871 31.5901 48.6485 30.1189 48.2934 28.7017C47.9425 27.3011 48.1442 26.247 49.3019 25.251C50.4826 24.2363 51.4637 22.9975 52.5457 21.8687C53.0709 21.3209 53.2978 20.7004 53.0625 19.9742C52.8272 19.25 52.2768 18.8786 51.5288 18.7292C49.6632 18.3578 47.8039 17.9552 45.9404 17.5838C45.5664 17.5091 45.3395 17.3327 45.1483 17.0049C44.1882 15.3614 43.2028 13.7326 42.2217 12.1016C41.3351 10.6304 39.6733 10.6263 38.7867 12.0933C37.8118 13.7077 36.8328 15.322 35.8874 16.953C35.6647 17.3369 35.3937 17.5132 34.9693 17.5962C33.1373 17.9573 31.3095 18.3391 29.4858 18.7313C27.7988 19.0923 27.3114 20.6361 28.49 21.8957C29.8766 23.3793 31.2737 24.8567 32.6814 26.3217C32.9251 26.5748 32.9986 26.8176 32.944 27.1537C32.6393 28.9569 32.362 30.7643 32.0511 32.5675C31.9145 33.3663 32.0574 34.0552 32.7423 34.5491C33.4062 35.0284 34.0995 34.9745 34.8138 34.6093C36.566 33.7149 38.3329 32.8497 40.0851 31.9533C40.3813 31.8018 40.6103 31.8018 40.9086 31.9533C42.707 32.8704 44.5096 33.7834 46.3269 34.6674C47.6463 35.3085 49.0371 34.4474 49.0014 32.9036L48.9993 32.9057Z" fill="white"/>
<path d="M40.4753 58.6294C33.9393 58.6294 27.4033 58.6294 20.8672 58.6294C19.4092 58.6294 18.7978 59.2332 18.7957 60.6691C18.7957 61.2045 18.7831 61.7398 18.7999 62.2731C18.8293 63.2588 19.4743 63.9165 20.4702 63.9892C20.6256 64.0016 20.7853 63.9954 20.9429 63.9954C33.9792 63.9954 47.0176 63.9954 60.0539 63.9954C61.6065 63.9954 62.2031 63.404 62.2031 61.8643C62.2031 61.4161 62.2031 60.9679 62.2031 60.5177C62.1968 59.2789 61.5455 58.6294 60.2955 58.6294C53.6901 58.6294 47.0848 58.6294 40.4774 58.6294H40.4753Z" fill="white"/>
<path d="M40.5026 49.7111C35.7314 49.7111 30.9601 49.7111 26.1889 49.7111C24.859 49.7111 24.235 50.3274 24.2329 51.6408C24.2329 52.2281 24.2224 52.8153 24.2371 53.4004C24.2582 54.3301 24.9031 54.9837 25.8444 55.0501C25.9662 55.0584 26.0881 55.0563 26.212 55.0563C35.7377 55.0563 45.2612 55.0542 54.7868 55.0625C55.4969 55.0625 56.2134 54.9484 56.4865 54.2803C56.9865 53.0539 56.9655 51.7425 56.5012 50.512C56.268 49.8937 55.6125 49.7069 54.9234 49.709C50.1165 49.7194 45.3116 49.7152 40.5047 49.7152L40.5026 49.7111Z" fill="white"/>
<path d="M40.5235 46.1254C43.4774 46.1254 46.4314 46.1254 49.3853 46.1254C50.7173 46.1254 51.3328 45.5112 51.337 44.1936C51.337 43.6416 51.3433 43.0897 51.337 42.5356C51.3181 41.4442 50.6816 40.7947 49.5723 40.7843C47.6331 40.7677 45.6918 40.7781 43.7506 40.7781C39.7483 40.7781 35.7439 40.7781 31.7416 40.7781C30.229 40.7781 29.6596 41.3446 29.6575 42.8427C29.6575 43.3096 29.6554 43.7744 29.6575 44.2413C29.6659 45.4967 30.2899 46.1213 31.5546 46.1233C34.5443 46.1275 37.5339 46.1233 40.5214 46.1233L40.5235 46.1254Z" fill="white"/>
<path d="M20.6216 24.7134C21.1973 24.7134 21.773 24.7259 22.3507 24.7113C23.46 24.6844 24.2458 23.9249 24.2352 22.9082C24.2247 21.9018 23.4117 21.1465 22.315 21.1402C21.1805 21.134 20.046 21.1319 18.9115 21.1402C17.8148 21.1485 17.008 21.908 17.0017 22.9185C16.9975 23.9374 17.7812 24.6864 18.8947 24.7113C19.4703 24.7238 20.046 24.7134 20.6237 24.7134H20.6216Z" fill="white"/>
<path d="M60.4322 21.1383C59.8208 21.1383 59.2094 21.128 58.6002 21.1404C57.5749 21.1612 56.7871 21.9206 56.7681 22.8917C56.7471 23.867 57.4951 24.6721 58.5308 24.7011C59.7683 24.7364 61.0099 24.7385 62.2474 24.7011C63.2852 24.6679 64.0206 23.8649 63.9996 22.8834C63.9786 21.9144 63.1907 21.1612 62.1612 21.1404C61.5856 21.13 61.0099 21.1404 60.4343 21.1404L60.4322 21.1383Z" fill="white"/>
<path d="M56.9045 17.1646C57.1692 17.0878 57.4487 17.0442 57.6966 16.9322C58.7428 16.4632 59.7849 15.9797 60.8207 15.488C61.8186 15.0128 62.2136 13.996 61.7766 13.0747C61.3417 12.1596 60.2891 11.8027 59.2891 12.2551C58.2113 12.7427 57.1377 13.2345 56.0768 13.7553C55.2763 14.1475 54.9044 14.9837 55.1187 15.7888C55.333 16.5939 56.041 17.1272 56.9045 17.1646Z" fill="white"/>
<path d="M19.0602 13.934C19.077 14.5544 19.3985 15.1064 20.0477 15.4218C21.1569 15.9592 22.2746 16.4863 23.407 16.976C24.3252 17.3744 25.3399 16.978 25.7559 16.1169C26.1782 15.2433 25.8609 14.2328 24.9554 13.7784C23.8209 13.2119 22.6738 12.6641 21.5015 12.1806C20.3187 11.693 19.056 12.5811 19.0602 13.934Z" fill="white"/>
<path d="M55.0706 30.7206C55.0811 31.2186 55.4067 31.7705 56.0517 32.0859C57.161 32.6275 58.2808 33.1484 59.4111 33.6422C60.3229 34.0406 61.3482 33.6484 61.7663 32.7915C62.1886 31.9262 61.8671 30.8949 60.9721 30.4488C59.8376 29.8823 58.6905 29.3345 57.5182 28.8489C56.3354 28.3592 55.0706 29.2453 55.0706 30.7206Z" fill="white"/>
<path d="M19.063 32.0219C19.063 33.2606 20.3025 34.1508 21.4664 33.6798C22.6724 33.1901 23.8531 32.6278 25.017 32.0426C25.8616 31.6172 26.1641 30.6046 25.7796 29.7684C25.3889 28.9176 24.3825 28.4674 23.5022 28.8388C22.3005 29.3472 21.124 29.9095 19.9537 30.4843C19.3718 30.7706 19.063 31.3765 19.063 32.0219Z" fill="white"/>
</g>
<defs>
<filter id="filter0_d_943_4" x="0" y="0.822266" width="81" height="79" filterUnits="userSpaceOnUse" color-interpolation-filters="sRGB">
<feFlood flood-opacity="0" result="BackgroundImageFix"/>
<feColorMatrix in="SourceAlpha" type="matrix" values="0 0 0 0 0 0 0 0 0 0 0 0 0 0 0 0 0 0 127 0" result="hardAlpha"/>
<feOffset dy="2"/>
<feGaussianBlur stdDeviation="1"/>
<feComposite in2="hardAlpha" operator="out"/>
<feColorMatrix type="matrix" values="0 0 0 0 0.595833 0 0 0 0 0.595833 0 0 0 0 0.595833 0 0 0 0.2 0"/>
<feBlend mode="normal" in2="BackgroundImageFix" result="effect1_dropShadow_943_4"/>
<feBlend mode="normal" in="SourceGraphic" in2="effect1_dropShadow_943_4" result="shape"/>
</filter>
<clipPath id="clip0_943_4">
<rect width="47" height="53" fill="white" transform="matrix(-1 0 0 1 64 11)"/>
</clipPath>
</defs>
</svg>
