<svg width="116" height="116" viewBox="0 0 116 116" fill="none" xmlns="http://www.w3.org/2000/svg">
<circle cx="58" cy="58" r="58" fill="#EDEDED"/>
<g clip-path="url(#clip0_918_6)">
<path d="M77.3199 67.2103L75.4299 62.6603C75.2599 62.2603 74.8099 62.0503 74.3999 62.1903L70.1599 63.5803C69.8299 63.6903 69.4799 63.5803 69.2599 63.3203C68.8499 62.8403 68.3999 62.3903 67.9299 61.9803C67.6699 61.7603 67.5599 61.4003 67.6699 61.0803L69.0599 56.8403C69.1999 56.4203 68.9899 55.9803 68.5899 55.8103L64.0399 53.9203C63.6399 53.7503 63.1699 53.9203 62.9799 54.3103L60.9599 58.2903C60.8099 58.6003 60.4799 58.7703 60.1399 58.7403C59.5199 58.7003 58.8799 58.7003 58.2499 58.7403C57.9099 58.7603 57.5799 58.5903 57.4299 58.2903L55.4099 54.3103C55.2099 53.9203 54.7499 53.7503 54.3499 53.9203L49.7999 55.8103C49.3999 55.9803 49.1899 56.4303 49.3299 56.8403L50.7199 61.0803C50.8299 61.4103 50.7199 61.7603 50.4599 61.9803C49.9799 62.3903 49.5299 62.8403 49.1199 63.3103C48.8999 63.5703 48.5399 63.6803 48.2199 63.5703L43.9799 62.1803C43.5699 62.0403 43.1199 62.2503 42.9499 62.6503L41.0599 67.2003C40.8899 67.6003 41.0599 68.0703 41.4499 68.2603L45.4299 70.2803C45.7399 70.4303 45.9099 70.7603 45.8799 71.1003C45.8399 71.7203 45.8399 72.3603 45.8799 72.9903C45.8999 73.3303 45.7299 73.6603 45.4299 73.8103L41.4499 75.8303C41.0599 76.0303 40.8899 76.4903 41.0599 76.8903L42.9499 81.4403C43.1199 81.8403 43.5699 82.0503 43.9799 81.9103L48.2199 80.5203C48.5499 80.4103 48.8999 80.5203 49.1199 80.7803C49.5299 81.2603 49.9799 81.7103 50.4499 82.1203C50.7099 82.3403 50.8199 82.7003 50.7099 83.0203L49.3199 87.2603C49.1799 87.6703 49.3899 88.1203 49.7899 88.2903L54.3399 90.1803C54.7399 90.3503 55.2099 90.1803 55.3999 89.7903L57.4199 85.8103C57.5699 85.5003 57.8999 85.3303 58.2399 85.3603C58.8599 85.4003 59.4999 85.4003 60.1299 85.3603C60.4699 85.3403 60.7999 85.5103 60.9499 85.8103L62.9699 89.7903C63.1699 90.1803 63.6299 90.3503 64.0299 90.1803L68.5799 88.2903C68.9799 88.1203 69.1899 87.6703 69.0499 87.2603L67.6599 83.0203C67.5499 82.6903 67.6599 82.3403 67.9199 82.1203C68.3999 81.7103 68.8499 81.2603 69.2599 80.7903C69.4799 80.5303 69.8399 80.4203 70.1599 80.5303L74.3999 81.9203C74.8099 82.0603 75.2599 81.8503 75.4299 81.4503L77.3199 76.9003C77.4899 76.5003 77.3199 76.0303 76.9299 75.8403L72.9499 73.8203C72.6399 73.6703 72.4699 73.3403 72.4999 73.0003C72.5399 72.3803 72.5399 71.7403 72.4999 71.1103C72.4799 70.7703 72.6499 70.4403 72.9499 70.2903L76.9299 68.2703C77.3199 68.0703 77.4899 67.6103 77.3199 67.2103Z" stroke="#B69256" stroke-width="2.5" stroke-linecap="round" stroke-linejoin="round"/>
<path d="M64.7797 69.7403C66.0597 72.8403 64.5897 76.3903 61.4897 77.6703C58.3897 78.9503 54.8397 77.4803 53.5597 74.3803C52.2797 71.2803 53.7497 67.7303 56.8497 66.4503C59.9497 65.1703 63.4997 66.6403 64.7797 69.7403Z" stroke="#B69256" stroke-width="2.5" stroke-linecap="round" stroke-linejoin="round"/>
<path d="M82.34 71.9298H86.52C93 71.9298 98.26 66.6798 98.26 60.1898C98.26 53.6998 93.01 48.4598 86.52 48.4598C84.62 48.4598 82.85 48.9498 81.26 49.7598C80.81 38.3698 71.5 29.2598 60 29.2598C49.63 29.2598 41.01 36.6598 39.08 46.4598C37.01 45.1998 34.6 44.4398 32 44.4398C24.41 44.4398 18.25 50.5998 18.25 58.1898C18.25 65.7798 24.41 71.9398 32 71.9398H35.86" stroke="#B69256" stroke-width="2.5" stroke-linecap="round" stroke-linejoin="round"/>
<path d="M59 36.8701C52.94 36.8701 47.7 41.1801 46.54 47.1201" stroke="#B69256" stroke-width="2.5" stroke-linecap="round" stroke-linejoin="round"/>
<path d="M31.0001 52.0498C28.1701 52.0498 25.8701 54.3498 25.8701 57.1798" stroke="#B69256" stroke-width="2.5" stroke-linecap="round" stroke-linejoin="round"/>
</g>
<defs>
<clipPath id="clip0_918_6">
<rect width="82.5" height="63.52" fill="white" transform="translate(17 28)"/>
</clipPath>
</defs>
</svg>
