<svg width="108" height="104" viewBox="0 0 108 104" fill="none" xmlns="http://www.w3.org/2000/svg">
<path d="M50.4302 86.758C51.7248 85.8953 53.0526 85.0805 54.3031 84.1587C57.6315 81.7032 60.7136 78.9749 63.3249 75.7414C64.3143 74.5173 65.5868 73.8611 67.1867 73.8242C71.7767 73.7173 75.4988 69.9087 75.5429 65.2631C75.5723 62.0444 75.5429 58.822 75.5539 55.5996C75.5539 55.2051 75.5907 54.8032 75.6569 54.4124C75.7562 53.8114 76.2049 53.5423 76.7235 53.6934C77.0876 53.8004 77.448 54.1396 77.6577 54.4677C77.8158 54.7184 77.7496 55.124 77.7533 55.4595C77.7607 57.0559 77.7312 58.6487 77.7827 60.2451C77.7938 60.5401 78.088 61.0452 78.3123 61.0858C82.0233 61.7162 86.0948 60.094 87.7645 56.396C88.2794 55.2604 88.7245 53.97 88.7318 52.7459C88.8054 43.3626 88.8789 33.9756 88.7024 24.5923C88.6215 20.2454 85.4732 16.5253 80.5779 16.3667C74.6161 16.175 68.6468 16.3188 62.6813 16.2635C62.1995 16.2598 61.4897 15.9685 61.2874 15.5925C60.8828 14.833 61.4382 14.114 62.3209 14.0218C62.5342 13.9997 62.7475 14.0144 62.9645 14.0144C68.5953 14.0144 74.2225 13.9702 79.8534 14.0366C82.3875 14.0661 84.7854 14.7334 86.8156 16.363C89.46 18.4867 90.8981 21.3109 90.9312 24.6513C91.0268 34.0678 91.0011 43.4843 90.9459 52.9007C90.9202 57.185 87.9631 61.377 83.7446 62.7855C82.141 63.3201 80.5412 63.5044 78.8971 63.4233C77.9924 63.3791 77.7239 63.7256 77.7423 64.5884C77.8195 68.4265 76.4403 71.5936 73.3509 73.9532C71.5193 75.3543 69.3971 75.9184 67.161 76.0917C66.3371 76.1544 65.7156 76.4383 65.2007 77.054C62.3834 80.4202 59.1947 83.3918 55.6308 85.9469C54.406 86.8244 53.1592 87.6835 51.8904 88.4983C50.7686 89.2172 49.6248 89.1509 48.7531 88.4172C47.7711 87.5913 47.5799 86.5479 48.0727 85.2021C49.0216 82.6065 49.9484 80.0035 50.8532 77.3932C51.2394 76.2797 51.0959 76.1175 49.9117 76.1138C42.0189 76.1138 34.1225 76.1949 26.2297 76.0806C21.6507 76.0143 17.5499 73.9016 15.7882 68.8763C15.31 67.5158 15.0636 66.0042 15.0526 64.5626C14.9864 55.7913 14.9827 47.0164 15.0415 38.2451C15.0599 35.6605 15.6079 33.1608 17.252 31.026C19.5617 28.0249 22.6401 26.6791 26.3621 26.7234C28.3555 26.7455 28.4107 26.7713 28.3445 24.7767C28.1937 20.1717 31.673 15.5961 35.9871 14.6412C37.2854 14.3536 38.6168 14.0624 39.9372 14.0476C45.2922 13.9813 50.6436 14.0181 55.9986 14.0181C56.245 14.0181 56.4877 14.0071 56.7341 14.0181C57.5617 14.0661 58.1317 14.5454 58.0729 15.2053C57.9993 16.0423 57.4477 16.3004 56.6716 16.2967C51.1327 16.2856 45.5975 16.3114 40.0586 16.2819C37.8702 16.2709 35.8364 16.6801 34.0121 17.9816C32.1805 19.2905 31.1617 21.1045 30.713 23.254C30.5255 24.1462 30.5071 25.0753 30.4335 25.9897C30.3931 26.4874 30.6579 26.7234 31.1544 26.7123C31.4302 26.7049 31.7061 26.7123 31.9819 26.7123C43.5158 26.7123 55.0497 26.7123 66.5872 26.7123C70.7322 26.7123 73.9835 28.4046 76.2196 31.9183C77.323 33.6548 77.7349 35.6274 77.7459 37.6699C77.768 41.3495 77.7607 45.0328 77.7459 48.7124C77.7459 49.3723 77.757 50.0839 76.9442 50.401C76.2748 50.6628 75.7856 50.4563 75.6348 49.7484C75.5576 49.3944 75.5539 49.0184 75.5539 48.6534C75.5502 45.1581 75.5208 41.6592 75.5576 38.164C75.5981 34.1858 73.8805 31.3026 70.2835 29.6361C69.4597 29.2526 68.4813 29.0351 67.5729 29.0351C53.5307 28.9982 39.4848 29.0093 25.4426 29.0093C21.1726 29.0093 17.3696 32.7552 17.3292 37.1611C17.2446 46.6366 17.2667 56.1158 17.3182 65.5949C17.3439 69.9861 21.305 73.8168 25.6927 73.8279C33.648 73.8463 41.6033 73.8279 49.5586 73.8389C50.1066 73.8389 50.684 73.8058 51.1952 73.9606C53.2328 74.58 53.5895 76.0732 52.99 77.9683C52.1736 80.5455 51.1768 83.0637 50.2831 85.6151C50.1801 85.9063 50.228 86.2492 50.2059 86.57C50.2831 86.6364 50.3567 86.699 50.4339 86.7654L50.4302 86.758Z" fill="#B69256"/>
<path d="M46.2885 63.438C40.0802 63.438 33.8719 63.438 27.6636 63.438C26.9317 63.438 26.3102 63.3422 26.2844 62.3983C26.2697 61.8084 26.38 61.3844 27.0972 61.3475C27.7629 61.3144 28.4213 61.1411 29.0833 61.1411C40.7974 61.1263 52.5078 61.13 64.2219 61.1411C64.7294 61.1411 65.2333 61.2922 65.7409 61.366C66.3771 61.4582 66.6162 61.8268 66.5794 62.4536C66.539 63.121 66.0829 63.3237 65.5496 63.4085C65.1929 63.4675 64.8177 63.438 64.4499 63.438C58.3961 63.438 52.3386 63.438 46.2848 63.438H46.2885Z" fill="#B69256"/>
<path d="M46.4254 50.954C52.5748 50.954 58.7206 50.9466 64.87 50.9687C65.3261 50.9687 65.852 51.0609 66.2161 51.3079C66.8561 51.743 66.7163 52.709 65.9954 52.9781C65.5247 53.1551 64.995 53.2546 64.4949 53.2546C52.5969 53.2694 40.6989 53.2694 28.8009 53.2546C28.2308 53.2546 27.6607 53.1071 27.0943 53.015C26.5022 52.9191 26.1933 52.4804 26.3624 51.9753C26.4912 51.5881 26.8884 51.1715 27.2672 51.0203C27.6938 50.8507 28.2308 50.954 28.72 50.954C34.623 50.954 40.526 50.954 46.429 50.954H46.4254Z" fill="#B69256"/>
<path d="M46.4544 56.1304C52.5119 56.1304 58.5694 56.1304 64.6232 56.1304C64.9579 56.1304 65.3 56.112 65.631 56.1673C66.19 56.2631 66.5872 56.536 66.5835 57.1959C66.5762 57.8817 66.1643 58.1766 65.5758 58.2909C65.311 58.3426 65.0278 58.3094 64.7519 58.3094C52.5781 58.3094 40.4006 58.3094 28.2268 58.3094C27.859 58.3094 27.4875 58.3168 27.1271 58.2615C26.5239 58.1656 26.2701 57.7932 26.2775 57.1664C26.2849 56.5286 26.5497 56.1894 27.1786 56.1488C27.4838 56.1304 27.7891 56.1304 28.0944 56.1304C34.2107 56.1304 40.3307 56.1304 46.4471 56.1304H46.4544Z" fill="#B69256"/>
<path d="M50.6329 34.4991C51.4862 34.4991 52.3468 34.4585 53.1964 34.5065C54.7484 34.5986 55.8702 35.7674 55.8334 37.3196C55.7819 39.4249 55.7452 41.5375 55.5098 43.6243C55.2964 45.5083 54.0276 46.7693 52.4093 47.6136C51.4641 48.1039 50.5777 47.5288 50.4306 46.4559C50.4048 46.2752 50.4049 46.0909 50.4012 45.9065C50.3791 44.8004 49.8004 44.2449 48.6652 44.24C46.4438 44.229 45.4691 43.3256 45.4103 41.1503C45.3735 39.8157 45.3808 38.4773 45.4139 37.1463C45.4507 35.642 46.4695 34.5876 47.9774 34.5028C48.8601 34.4512 49.7465 34.4917 50.6329 34.4917C50.6329 34.4917 50.6329 34.4954 50.6329 34.4991ZM52.6778 43.9782C52.7771 44.0151 52.8727 44.052 52.972 44.0925C53.1633 43.5948 53.4943 43.1044 53.52 42.5993C53.5973 40.9181 53.5568 39.2294 53.5789 37.5445C53.5862 36.9509 53.3104 36.7297 52.744 36.7371C51.339 36.7518 49.9304 36.7407 48.5254 36.7371C47.8193 36.7371 47.4552 37.0689 47.4625 37.7915C47.4699 38.4036 47.4662 39.0156 47.4625 39.6313C47.4441 42.0094 47.2934 41.9541 49.7943 42.0094C51.4494 42.0426 52.1518 42.0205 52.6815 43.9819L52.6778 43.9782Z" fill="#B69256"/>
<path d="M43.6224 39.8524C43.4348 41.3567 43.398 42.9016 43.0192 44.3579C42.6367 45.8474 41.5259 46.9166 40.1467 47.5987C39.1243 48.1075 38.168 47.4808 38.0945 46.3378C38.0062 44.9835 37.2743 44.2817 35.8988 44.2325C34.1591 44.1699 33.0742 43.0785 33.0484 41.3272C33.0263 40.011 33.03 38.6947 33.0484 37.3785C33.0742 35.6346 34.0929 34.5469 35.8068 34.499C37.4839 34.4547 39.1647 34.4511 40.8419 34.5064C42.4565 34.558 43.4164 35.5903 43.4274 37.1757C43.4348 38.0643 43.4274 38.9491 43.4274 39.8377C43.4899 39.8414 43.5525 39.8488 43.615 39.8524H43.6224ZM40.6616 44.0814C40.8235 43.7274 41.0846 43.4104 41.103 43.0785C41.2133 41.1982 41.2979 39.3105 41.2979 37.4301C41.2979 37.1978 40.7389 36.7849 40.4226 36.7702C38.9919 36.6964 37.5575 36.7517 36.1231 36.7333C35.5457 36.7259 35.2588 37.0135 35.2257 37.537C35.1669 38.3887 35.1448 39.2441 35.1448 40.0995C35.1374 41.9245 35.2 41.9909 36.969 41.9761C38.5211 41.9651 39.9996 42.0536 40.4447 43.9708C40.4483 43.9892 40.4961 44.0003 40.6653 44.0851L40.6616 44.0814Z" fill="#B69256"/>
<path d="M46.4617 66.4244C49.6063 66.4244 52.7546 66.406 55.8992 66.4502C56.2412 66.4539 56.701 66.7415 56.8738 67.0328C57.0283 67.2872 56.9106 67.7554 56.8039 68.0946C56.7525 68.2568 56.4509 68.3969 56.2449 68.4338C55.8551 68.5002 55.4542 68.5002 55.0569 68.5002C49.2238 68.5002 43.3907 68.5002 37.5575 68.5002C37.3442 68.5002 37.1309 68.4928 36.9176 68.4928C36.2151 68.4928 35.7333 68.2421 35.7443 67.442C35.7554 66.6567 36.2151 66.4133 36.9323 66.417C40.11 66.4281 43.284 66.4207 46.4617 66.4244Z" fill="#B69256"/>
</svg>
