<svg width="108" height="104" viewBox="0 0 108 104" fill="none" xmlns="http://www.w3.org/2000/svg">
<path d="M88.2318 67.446C89.0477 67.4343 89.7619 66.7103 89.7638 65.8944C89.7658 65.0433 89.0106 64.3135 88.1614 64.3468C87.3455 64.3801 86.6372 65.1255 86.6607 65.9297C86.6842 66.7377 87.4297 67.4577 88.2338 67.446H88.2318Z" fill="white"/>
<path d="M14 50.4373C14.2622 49.1675 14.4422 47.8761 14.8081 46.6376C15.1524 45.4734 15.6494 44.3484 16.1562 43.239C16.6121 42.2392 17.4769 41.9183 18.3202 42.3253C19.1165 42.7088 19.4315 43.5892 18.9717 44.5304C17.9328 46.6631 17.2714 48.8857 17.1756 51.2611C17.0562 54.1803 17.6784 56.9352 19.1008 59.6196C20.49 56.2895 22.9769 54.4073 26.4929 53.6931C26.2757 53.3214 26.0878 53.0239 25.9215 52.7148C24.6184 50.2886 24.4247 44.8141 27.0935 41.8987C30.6878 37.9699 37.4635 38.5764 39.9582 43.2742C41.7171 46.5848 41.6017 49.958 39.8603 53.2744C39.8016 53.3879 39.7468 53.5053 39.6568 53.6892C43.0926 54.4053 45.6108 56.2484 47.0136 59.6392C48.0252 57.8313 48.618 56.0058 48.8313 54.0707C49.8077 45.2132 44.2783 37.8271 35.4736 36.2872C32.345 35.7394 29.3064 36.2187 26.4068 37.5277C26.0761 37.6764 25.7533 37.8525 25.4148 37.9797C24.5324 38.3084 23.7223 38.0071 23.3721 37.2381C23.018 36.4633 23.2684 35.575 24.1136 35.1954C25.4598 34.5889 26.8235 33.9589 28.244 33.593C36.0665 31.5836 43.8068 34.4265 48.5672 40.9713C48.7198 41.1807 48.8822 41.3822 49.0622 41.6189C49.2579 41.5329 49.4476 41.4644 49.6237 41.3705C53.9576 39.0558 58.2875 36.7294 62.6312 34.4343C63.1634 34.1526 63.3062 33.9237 63.0812 33.3112C61.7625 29.7033 61.8075 26.0777 63.0929 22.4639C63.5077 21.2977 64.4665 20.836 65.3939 21.3408C66.1335 21.7438 66.3859 22.4482 66.0513 23.4343C65.4878 25.1033 65.1885 26.8036 65.253 28.5685C65.3215 30.4468 66.0474 32.8925 67.0003 34.2348C68.0353 31.8008 69.8373 30.2863 72.3907 29.6289C71.2715 27.3886 71.1991 25.0955 71.9172 22.7848C72.7507 20.1062 75.7286 18.1652 78.4464 18.4431C81.6708 18.7737 84.1244 21.0297 84.4922 23.9998C84.7877 26.3947 84.6351 27.5256 83.7135 29.6172C86.2199 30.2805 88.0513 31.7597 89.2624 34.2387C89.6283 33.321 90.0724 32.4249 90.3464 31.4799C92.5378 23.8902 87.433 16.2399 79.5734 15.2538C77.7557 15.0269 75.9986 15.2069 74.2631 15.741C73.8914 15.8565 73.5216 15.9856 73.1401 16.0619C72.2146 16.2478 71.475 15.8271 71.2383 15.0092C71.0152 14.2423 71.3811 13.4107 72.2283 13.1348C73.4336 12.7415 74.6819 12.4774 75.9106 12.1585C76.1043 12.1076 76.298 12.0528 76.4937 12C77.4837 12 78.4718 12 79.4618 12C80.1975 12.1467 80.9391 12.2681 81.6689 12.4422C93.0993 15.1619 97.7853 28.7367 90.4696 37.9229C84.0207 46.0193 71.4809 45.7924 65.3039 37.469C65.1493 37.2616 64.9889 37.062 64.7893 36.8057C60.0583 39.3356 55.3409 41.8577 50.5492 44.4188C52.6036 49.4551 52.6212 54.4973 50.5433 59.5766C55.2881 62.1143 60.0054 64.6363 64.7541 67.176C65.3019 66.5205 65.8107 65.871 66.3605 65.2585C70.5828 60.551 77.7185 58.8409 83.5942 61.1184C84.8288 61.5977 85.2397 62.8343 84.4453 63.707C83.919 64.2861 83.2791 64.2274 82.5748 64.0885C81.0036 63.7754 79.4207 63.3293 77.8378 63.3C71.7489 63.1885 66.1746 68.1582 65.388 74.1982C65.0672 76.6655 65.3822 79.0193 66.3702 81.2909C66.4935 81.5765 66.6481 81.8485 66.7948 82.1244C66.8281 82.1851 66.8887 82.232 66.8614 82.2027C67.6146 81.2615 68.2525 80.1913 69.1506 79.4243C70.0545 78.6514 71.2167 78.1779 72.2987 77.5538C71.2735 75.4661 71.2011 73.1495 71.9485 70.8153C72.7429 68.3363 75.3921 66.5205 78.0687 66.5323C80.7356 66.544 83.3104 68.3363 84.1557 70.7664C84.8972 72.901 84.7544 75.3154 83.7957 77.5557C84.8542 78.1623 86.0106 78.628 86.9145 79.395C87.8204 80.1619 88.4719 81.2283 89.2546 82.187C90.0098 80.9798 90.4579 79.5143 90.7044 77.9764C91.0507 75.8222 90.7905 73.7326 90.094 71.6742C89.9492 71.2477 89.8827 70.7487 89.9511 70.3105C90.0548 69.657 90.5635 69.2911 91.2092 69.205C91.9351 69.1091 92.5534 69.4163 92.7862 70.0894C93.1971 71.2888 93.655 72.5116 93.7958 73.758C94.5902 80.792 91.9566 86.243 85.8932 89.896C78.7907 94.1751 68.9706 91.6863 64.621 84.6132C61.9033 80.1932 61.4064 75.5209 63.091 70.6177C63.2299 70.2107 63.3258 69.9368 62.8308 69.6746C58.3267 67.2895 53.8363 64.879 49.342 62.4782C49.2755 62.443 49.1933 62.4313 49.2265 62.441C47.9489 63.8028 46.8141 65.2448 45.4484 66.4208C41.1067 70.1559 36.0156 71.6723 30.3591 70.8192C21.7775 69.522 15.6357 63.3333 14.2035 54.779C14.135 54.372 14.0724 53.9651 14.0059 53.5561C14.0059 52.5152 14.0059 51.4724 14.0059 50.4315L14 50.4373ZM33.0416 67.941C37.2796 67.8549 40.9952 66.4266 44.0866 63.4663C44.2803 63.2804 44.427 62.9361 44.4212 62.67C44.3664 60.142 42.8089 57.9859 40.4238 57.17C39.4181 56.8256 38.3831 56.5634 37.3461 56.3286C36.9978 56.2484 36.5674 56.2738 36.2387 56.4069C34.106 57.2619 31.9948 57.2639 29.866 56.3991C29.5745 56.2797 29.2047 56.2171 28.9034 56.2817C27.9662 56.4852 27.0368 56.7356 26.1172 57.0134C23.4954 57.8039 21.8499 59.8466 21.6992 62.5232C21.6816 62.8363 21.8127 63.2589 22.0299 63.4683C25.0978 66.4051 28.788 67.8393 33.0396 67.941H33.0416ZM78.0413 40.76C81.0075 40.715 83.6685 39.8267 85.9792 37.9699C86.1925 37.7977 86.4058 37.4905 86.4273 37.2323C86.5838 35.2815 85.4216 33.5206 83.5707 32.8749C82.9348 32.6538 82.2813 32.4582 81.6199 32.3408C81.2149 32.2684 80.7493 32.2782 80.3638 32.4073C78.9903 32.8691 77.5894 33.0275 76.2374 32.5247C75.3667 32.1999 74.5938 32.2195 73.7662 32.5032C73.5451 32.5795 73.3142 32.6245 73.0892 32.6871C70.9095 33.2975 69.7904 34.7024 69.6417 36.9505C69.6104 37.4103 69.7278 37.7038 70.1034 37.9973C72.4455 39.8169 75.0947 40.7189 78.0394 40.762L78.0413 40.76ZM78.1079 88.8707C80.9704 88.8179 83.6372 87.9472 85.9558 86.1022C86.173 85.93 86.3999 85.6345 86.4253 85.3763C86.6132 83.4529 85.4353 81.6411 83.5981 81.0013C82.9387 80.7724 82.2598 80.5748 81.575 80.4456C81.1954 80.3732 80.7551 80.383 80.3932 80.5082C79.0235 80.9798 77.6207 81.1481 76.2687 80.6452C75.3432 80.3008 74.5214 80.3674 73.6488 80.653C73.4512 80.7176 73.2477 80.7587 73.0481 80.8154C70.8861 81.4298 69.7415 82.8503 69.673 85.1062C69.6632 85.4252 69.8549 85.8615 70.1015 86.0611C72.4024 87.9296 75.0693 88.8081 78.1098 88.8688L78.1079 88.8707ZM38.0094 48.1638C37.984 47.749 37.9683 47.3322 37.9292 46.9194C37.7198 44.6928 36.1506 42.9064 34.0473 42.4935C31.8148 42.0553 29.6058 43.1529 28.6158 45.2347C27.9623 46.6063 28.0601 48.0757 28.1971 49.5275C28.5199 52.9789 32.3098 54.9962 35.3562 53.3409C37.4107 52.2257 38.0818 50.3845 38.0113 48.1638H38.0094ZM81.4791 25.6786C81.4791 23.5224 80.669 22.1997 79.0431 21.7067C77.2646 21.1686 75.2688 22.1273 74.8266 23.9137C74.2103 26.4005 74.6486 28.6663 76.9437 29.492C77.2078 29.5878 77.4954 29.6426 77.7772 29.6602C80.0214 29.807 81.4791 28.2358 81.481 25.6786H81.4791ZM81.4458 73.801C81.4458 73.4371 81.483 73.0693 81.4399 72.7132C81.2267 70.9914 79.8218 69.7078 78.1333 69.6628C76.4741 69.6198 74.9597 70.7879 74.7171 72.4706C74.586 73.3765 74.5801 74.3587 74.7836 75.247C75.3432 77.6868 78.2937 78.6025 80.2229 77.0059C81.2325 76.1705 81.5417 75.0591 81.4478 73.803L81.4458 73.801Z" fill="#B69256"/>
<path d="M88.2309 67.446C87.4287 67.4577 86.6813 66.7377 86.6578 65.9297C86.6343 65.1275 87.3426 64.3801 88.1585 64.3468C89.0076 64.3135 89.7648 65.0433 89.7609 65.8944C89.7589 66.7103 89.0448 67.4343 88.2289 67.446H88.2309Z" fill="#B69256"/>
<path d="M20.6876 41.1885C19.8697 41.1885 19.1575 40.4802 19.1419 39.6526C19.1262 38.8073 19.7954 38.1049 20.6347 38.0853C21.4897 38.0658 22.245 38.7995 22.2352 39.6447C22.2274 40.4587 21.4956 41.1865 20.6856 41.1865L20.6876 41.1885Z" fill="#B69256"/>
<path d="M67.8748 16.23C68.6926 16.23 69.4283 16.9617 69.4302 17.7776C69.4302 18.5916 68.6907 19.3331 67.8787 19.3331C67.055 19.3331 66.335 18.6111 66.333 17.7815C66.3311 16.95 67.0432 16.2319 67.8748 16.2319V16.23Z" fill="#B69256"/>
</svg>
