<svg width="108" height="104" viewBox="0 0 108 104" fill="none" xmlns="http://www.w3.org/2000/svg">
<path d="M42.9707 84.6364C40.3809 79.3422 37.7605 74.0556 35.2089 68.7385C34.3991 67.0578 34.7964 65.7362 36.1639 64.9569C37.5008 64.193 38.8836 64.5749 39.892 66.1181C41.1754 68.0815 42.3443 70.1213 43.6201 72.0846C44.2389 73.0319 44.6667 74.7432 46.1182 74.0556C46.8134 73.7271 47.1877 72.077 47.1954 71.0151C47.2718 60.2892 47.2412 49.5709 47.2412 38.8449C47.2412 36.026 48.0587 34.7425 49.8081 34.7883C51.5423 34.8342 52.3368 36.1176 52.3368 38.9519C52.3368 47.5158 52.3368 56.0874 52.3368 64.6513C52.3368 65.7362 52.2069 67.0578 53.7654 67.0349C55.2016 67.0196 55.0718 65.7591 55.0718 64.743C55.0794 62.0157 55.0259 59.2807 55.1252 56.5611C55.194 54.7047 56.3017 53.5434 57.7456 53.6733C59.4339 53.8261 60.1215 54.9186 60.1368 56.5381C60.1673 59.3953 60.1368 62.2525 60.3201 65.0944C60.366 65.7744 61.0382 66.8821 61.5654 66.9738C62.803 67.1877 63.0245 66.1181 63.0245 65.0715C63.0169 62.5352 63.0169 59.9989 63.0245 57.4549C63.0322 55.0179 63.926 53.681 65.5379 53.6428C67.2263 53.6046 68.0972 54.8651 68.0972 57.3785C68.0972 59.8919 68.0743 62.1761 68.1125 64.5749C68.1277 65.6216 67.952 66.989 69.5258 67.012C71.0766 67.0272 70.9773 65.7362 70.9773 64.6437C70.9773 62.9324 70.9544 61.2135 71.0002 59.5023C71.0384 57.9667 71.7718 56.9583 73.3914 56.859C74.8964 56.7673 75.8666 57.7605 76.0041 59.487C76.0423 59.9912 76.027 60.5031 76.027 61.0073C76.027 66.8439 76.027 72.6805 76.027 78.5248C76.027 79.1588 75.8513 79.877 76.0882 80.4041C76.5618 81.4507 78.0133 81.6417 78.6856 80.7173C78.7696 80.6027 78.846 80.4881 78.9148 80.3659C79.1058 80.0298 78.9606 79.495 78.9606 79.0519C78.9606 72.9632 78.9606 66.8668 78.9606 60.7781C78.9606 55.3922 76.3479 53.2608 71.1072 54.338C71.0002 54.3609 70.8703 54.2845 70.7481 54.2463C68.3035 50.3425 66.3095 49.8994 62.2529 51.8169L55.1558 50.5869C55.1558 50.5869 55.1482 50.5869 55.1482 50.5717C55.1482 49.6702 55.2933 48.5243 55.1176 47.4242C54.8349 45.6365 55.5531 44.6204 57.0428 43.7343C60.0909 41.916 63.0704 39.9832 66.0345 38.0199C70.3661 35.155 70.4655 29.7386 66.2408 26.7592C64.7434 25.6973 64.033 25.0403 62.3981 24.2152C61.7793 23.902 60.641 23.5047 60.1215 24.2916C59.4187 25.3688 60.0527 26.0105 60.9007 26.5682C62.421 27.5766 63.1773 28.1037 64.6365 29.1886C66.9054 30.8769 66.9589 33.7035 64.6976 35.3995C63.3301 36.4308 61.8251 37.2788 60.3736 38.2032C58.7464 39.2346 57.1192 40.2659 55.0794 41.5493C55.0718 41.5493 55.0565 41.5494 55.0565 41.5341C55.0565 39.7464 55.0947 38.4477 55.0488 37.149C54.9266 34.0168 52.7264 31.8777 49.7012 31.9082C46.6759 31.9388 44.491 34.0931 44.4299 37.2024C44.3687 40.434 44.3535 43.6731 44.384 46.9123C44.3993 48.4937 43.6201 48.9215 42.2144 48.6847C40.2892 48.3638 39.0516 47.0116 39.0363 44.7732C38.9829 36.4614 38.9523 28.1496 39.0363 19.8378C39.0745 16.4763 41.9699 14.9408 44.9188 16.6139C46.737 17.6452 48.4177 18.9286 50.2588 19.8989C50.3811 19.96 50.5186 19.9982 50.6714 20.0058C51.7868 20.0746 52.4514 19.112 52.0541 18.073C51.9701 17.8591 51.8631 17.6834 51.7104 17.5688C49.831 16.1784 47.8524 14.8797 45.7821 13.7949C41.4122 11.4954 36.2708 14.4366 36.1868 19.387C36.0493 27.951 36.0798 36.5225 36.1868 45.0865C36.2326 48.9292 38.8836 51.4273 42.711 51.6488C43.1846 51.6794 43.6583 51.7558 44.1396 51.8169C44.1396 51.8169 44.1472 51.8169 44.1472 51.8322V67.203C44.1472 67.203 44.1319 67.2182 44.1243 67.203C43.2457 65.8966 42.6957 65.018 42.0845 64.1853C40.4955 62.0233 38.2189 61.1983 35.9347 61.9087C32.3899 63.0088 30.9308 66.4237 32.6115 70.0219C34.5137 74.1015 36.5611 78.1122 38.5551 82.1459C39.3419 83.7349 40.0906 85.3545 41.0226 86.8595C41.0837 86.9512 41.1678 87.0352 41.2747 87.0963C42.0081 87.5394 43.3374 87.2262 43.559 85.9657L42.9554 84.6211L42.9707 84.6364Z" fill="white"/>
<path d="M89.9919 32.7411C89.9919 32.7946 89.9919 32.8404 89.9919 32.8939C89.7322 37.6991 88.1813 42.4739 84.4685 46.3318C83.9643 46.859 82.7955 47.3555 82.2607 47.1187C80.9925 46.561 81.3821 45.5297 82.1614 44.6511C84.5984 41.8856 86.3478 38.7916 86.8521 35.0788C87.5778 29.7082 86.3096 24.9105 82.7649 20.7546C82.5204 20.4643 82.1155 20.2046 82.0621 19.8837C82.0391 19.7691 82.0239 19.6469 82.0086 19.5247C81.8864 18.4628 82.8871 17.5384 83.8879 17.9204C84.0178 17.9738 84.1324 18.0349 84.2164 18.1266C88.0056 22.061 89.9155 26.8204 89.9996 32.7411H89.9919Z" fill="white"/>
<path d="M15.0025 32.2751C14.9262 27.0268 16.7826 22.4965 20.1822 18.5622C20.61 18.0656 21.2364 17.6301 21.8552 17.4315C22.1914 17.3245 23.0241 17.7065 23.0852 17.9816C23.2074 18.5774 23.1539 19.3567 22.8484 19.8609C21.7177 21.7478 20.1516 23.4362 19.2883 25.4301C16.5916 31.6487 17.4854 37.5541 21.4656 43.0087C21.9163 43.6199 22.5733 44.1394 22.8254 44.8193C22.8407 44.8651 22.856 44.9033 22.8636 44.9492C23.1845 46.0722 22.0844 47.1799 20.9996 46.7521C20.8697 46.6986 20.7551 46.6299 20.6711 46.5458C17.1951 42.9476 15.2852 38.6236 15.0102 33.6044C14.9873 33.1613 15.0102 32.7182 15.0102 32.2751H15.0025Z" fill="white"/>
<path d="M82.8109 32.313C82.9331 35.9571 81.6802 38.9441 79.3196 41.4193C79.205 41.5416 79.0522 41.6256 78.8765 41.6867C77.7688 42.0916 76.577 40.9762 77.043 39.8914C77.0736 39.8227 77.1118 39.7539 77.1499 39.6928C80.9697 34.4979 80.9621 30.2885 77.1347 24.9408C77.0506 24.8186 76.9972 24.6811 76.959 24.5283C76.7374 23.4969 77.8146 22.5802 78.8001 22.9545C78.9529 23.0157 79.0828 23.092 79.1897 23.1914C81.6878 25.743 82.9331 28.8599 82.8032 32.313H82.8109Z" fill="white"/>
<path d="M22.0008 32.1219C22.0161 28.6688 23.2919 25.7123 25.599 23.1989C26.1491 22.603 26.7526 21.7321 27.8069 22.6259C28.8458 23.5121 28.3493 24.2302 27.7228 25.0553C23.8878 30.1051 23.8801 34.3297 27.6693 39.5934C28.2729 40.4261 28.7847 41.2282 27.761 42.0533C26.6762 42.9319 26.0345 42.0304 25.4004 41.3428C23.2155 38.9593 22.0008 35.6208 21.9932 32.1219H22.0008Z" fill="white"/>
<path d="M76.5471 31.7019C76.7228 32.0915 76.7228 32.5499 76.5471 32.9395C75.8825 34.4139 75.3324 35.7814 74.5456 37.0037C74.4844 37.1031 74.3775 37.1794 74.2476 37.2329C73.2545 37.6684 72.078 36.8127 72.2384 35.7432C72.2537 35.6133 72.2919 35.5064 72.3606 35.4071C73.8122 33.2986 73.8427 31.3734 72.3606 29.2725C72.2919 29.1808 72.2537 29.0662 72.2384 28.9364C72.0933 27.8592 73.2621 27.0265 74.2553 27.4543C74.3928 27.5154 74.4997 27.5842 74.5608 27.6911C75.3477 28.8982 75.8978 30.2657 76.5548 31.7095L76.5471 31.7019Z" fill="white"/>
<path d="M28.3187 32.7717C28.1353 32.3591 28.143 31.8778 28.3492 31.4653C29.0826 30.0061 29.6862 28.6845 30.496 27.5004C30.58 27.3781 30.7481 27.3094 30.9543 27.2712C31.8787 27.1031 32.7649 27.8747 32.6961 28.8067C32.6809 28.9519 32.6503 29.0818 32.5739 29.1887C31.0384 31.3354 30.9925 33.3141 32.5739 35.4608C32.6427 35.5525 32.6809 35.6747 32.6961 35.8122C32.8031 36.7595 31.8787 37.5235 30.9467 37.3554C30.6869 37.3096 30.4807 37.2332 30.3966 37.0804C29.5868 35.7664 28.9986 34.3072 28.3187 32.7717Z" fill="white"/>
<path d="M77.5547 87.4938C78.3395 87.4938 78.9757 86.8576 78.9757 86.0728C78.9757 85.288 78.3395 84.6519 77.5547 84.6519C76.77 84.6519 76.1338 85.288 76.1338 86.0728C76.1338 86.8576 76.77 87.4938 77.5547 87.4938Z" fill="white"/>
<path d="M56.1495 23.6652C56.9342 23.6652 57.5704 23.029 57.5704 22.2442C57.5704 21.4594 56.9342 20.8232 56.1495 20.8232C55.3647 20.8232 54.7285 21.4594 54.7285 22.2442C54.7285 23.029 55.3647 23.6652 56.1495 23.6652Z" fill="white"/>
</svg>
