<svg width="21" height="21" viewBox="0 0 21 21" fill="none" xmlns="http://www.w3.org/2000/svg">
<g clip-path="url(#clip0_902_31214)" filter="url(#filter0_d_902_31214)">
<path d="M17 6.51076C16.9987 10.0661 14.0879 12.9987 10.5601 13C6.89311 13.0013 3.99621 10.1129 4 6.46013C4.0038 2.90225 6.93104 -0.00379338 10.507 3.7168e-06C14.0993 0.00380082 17.0025 2.91491 17 6.51076ZM10.0214 10.6382C10.3881 10.6382 10.7156 10.5129 11.0153 10.3104C11.3971 10.0522 11.6766 9.70539 11.8814 9.29657C11.9383 9.18265 11.9447 9.07254 11.8271 8.99406C11.712 8.91812 11.6235 8.97888 11.5464 9.06621C11.5008 9.1181 11.4578 9.17506 11.4085 9.22316C11.2492 9.37631 11.0671 9.48642 10.8357 9.4763C10.6498 9.46744 10.5487 9.36998 10.5664 9.18392C10.5816 9.02824 10.6258 8.87382 10.665 8.72067C10.947 7.62964 11.2328 6.53987 11.5135 5.44758C11.5767 5.20203 11.4806 5.10457 11.2277 5.13368C10.9445 5.16659 10.6612 5.19697 10.3792 5.22987C9.98347 5.27671 9.58769 5.32227 9.19191 5.3729C9.06041 5.38935 8.97948 5.46403 9.00224 5.60452C9.02374 5.73869 9.12363 5.77033 9.24375 5.7602C9.32594 5.75387 9.40813 5.74501 9.49033 5.73995C9.78242 5.72097 9.87852 5.83108 9.80644 6.1108C9.64459 6.73606 9.47768 7.36005 9.31962 7.98657C9.19823 8.465 9.05788 8.94091 8.97695 9.42693C8.86189 10.1193 9.32721 10.6357 10.0239 10.6382H10.0214ZM11.0621 2.36053C10.5259 2.36433 10.0998 2.79593 10.1036 3.33259C10.1074 3.86672 10.5411 4.29452 11.0772 4.29199C11.6096 4.28946 12.037 3.85406 12.0344 3.3174C12.0319 2.77948 11.602 2.35674 11.0621 2.36053Z" fill="#B69256"/>
<path d="M10.0215 10.6382C9.32475 10.6356 8.85943 10.1192 8.9745 9.4269C9.05542 8.94088 9.19578 8.46497 9.31717 7.98654C9.47523 7.36002 9.64214 6.73603 9.80399 6.11077C9.87606 5.83105 9.77996 5.72094 9.48787 5.73992C9.40568 5.74498 9.32349 5.75384 9.2413 5.76017C9.12118 5.7703 9.02128 5.73739 8.99979 5.60449C8.97703 5.464 9.05795 5.38932 9.18946 5.37287C9.58524 5.32351 9.98101 5.27668 10.3768 5.22984C10.66 5.19694 10.9433 5.16529 11.2253 5.13365C11.4781 5.10454 11.5742 5.202 11.511 5.44754C11.2316 6.53858 10.9445 7.62961 10.6626 8.72064C10.6234 8.87379 10.5791 9.02821 10.5639 9.18389C10.5462 9.36868 10.6474 9.46741 10.8333 9.47627C11.0659 9.48639 11.2467 9.37628 11.4061 9.22313C11.4566 9.17503 11.4984 9.11934 11.5439 9.06618C11.621 8.97885 11.7095 8.91809 11.8246 8.99403C11.9422 9.07251 11.9359 9.18262 11.879 9.29654C11.6741 9.70662 11.396 10.0534 11.0128 10.3104C10.7119 10.5129 10.3856 10.6369 10.0189 10.6382H10.0215Z" fill="white"/>
<path d="M11.062 2.36062C11.6032 2.35682 12.0319 2.77957 12.0344 3.31749C12.0369 3.85415 11.6095 4.28955 11.0772 4.29208C10.5398 4.29461 10.1073 3.8668 10.1035 3.33268C10.0997 2.79602 10.5259 2.36315 11.062 2.36062Z" fill="white"/>
</g>
<defs>
<filter id="filter0_d_902_31214" x="0" y="0" width="21" height="21" filterUnits="userSpaceOnUse" color-interpolation-filters="sRGB">
<feFlood flood-opacity="0" result="BackgroundImageFix"/>
<feColorMatrix in="SourceAlpha" type="matrix" values="0 0 0 0 0 0 0 0 0 0 0 0 0 0 0 0 0 0 127 0" result="hardAlpha"/>
<feOffset dy="4"/>
<feGaussianBlur stdDeviation="2"/>
<feComposite in2="hardAlpha" operator="out"/>
<feColorMatrix type="matrix" values="0 0 0 0 0 0 0 0 0 0 0 0 0 0 0 0 0 0 0.25 0"/>
<feBlend mode="normal" in2="BackgroundImageFix" result="effect1_dropShadow_902_31214"/>
<feBlend mode="normal" in="SourceGraphic" in2="effect1_dropShadow_902_31214" result="shape"/>
</filter>
<clipPath id="clip0_902_31214">
<rect width="13" height="13" fill="white" transform="translate(4)"/>
</clipPath>
</defs>
</svg>
